<?xml version="1.0" encoding="iso-8859-1"?>
<!-- Generator: Adobe Illustrator 19.0.0, SVG Export Plug-In . SVG Version: 6.00 Build 0)  -->
<svg version="1.1" id="Capa_1" xmlns="http://www.w3.org/2000/svg" xmlns:xlink="http://www.w3.org/1999/xlink" x="0px" y="0px"
	 viewBox="0 0 496 496" style="enable-background:new 0 0 496 496;" xml:space="preserve">
<g>
	<g>
		<g>
			<path d="M264,208c44.112,0,80-35.888,80-80s-35.888-80-80-80s-80,35.888-80,80S219.888,208,264,208z M264,64
				c35.288,0,64,28.712,64,64c0,35.288-28.712,64-64,64c-35.288,0-64-28.712-64-64C200,92.712,228.712,64,264,64z"/>
			<path d="M264,96V80c-22.736,0-42.52,16.152-47.04,38.408l15.672,3.184C235.648,106.768,248.84,96,264,96z"/>
			<path d="M238.4,147.2c-2.864-3.816-4.808-8.12-5.76-12.784l-15.672,3.184c1.408,6.912,4.392,13.552,8.632,19.2L238.4,147.2z"/>
			<path d="M468.688,328l-40,40H360v-16h20.28L416,298.424V264h-43.88l-21.456-30.032l20.656-31.776
				c13.528-20.816,20.68-44.944,20.68-69.76V128C392,57.424,334.576,0,264,0S136,57.424,136,128v4.432
				c0,20.88,5.12,41.232,14.776,59.568h-28.704l-72-40H0v57.888l16,32v48.528l16,24v24L51.064,367L80,374.248v11.64L99.056,424H136
				v-58.424l-64-96v-18.264l7.608-7.608L184,363.008v50.184l151.584,67.376l23.456-7.824L397.784,496H440v-25.888l-8-16V440h48
				v-22.112l16-32V328H468.688z M152,128c0-61.76,50.24-112,112-112s112,50.24,112,112v4.432c0,21.72-6.256,42.832-18.104,61.04
				l-75.888,116.76C278.032,316.344,271.304,320,264,320c-7.304,0-14.032-3.656-18.008-9.776l-75.888-116.76
				C158.256,175.256,152,154.152,152,132.432V128z M480,382.112l-16,32V424h-48v33.888l8,16V480h-21.784l-41.256-24.752
				l-24.544,8.176L200,402.808v-45.816L80.392,220.296L56,244.688v29.736l64,96V408h-11.056L96,382.112v-20.36l-35.064-8.76
				L48,333.576v-24l-16-24v-47.472l-16-32V168h29.928l72,40h42.528l72.112,110.944C239.512,329.624,251.256,336,264,336
				c12.744,0,24.488-6.376,31.432-17.056l45.872-70.568L363.88,280H400v13.576L371.72,336H344v48h91.312l40-40H480V382.112z"/>
		</g>
	</g>
</g>
<g>
</g>
<g>
</g>
<g>
</g>
<g>
</g>
<g>
</g>
<g>
</g>
<g>
</g>
<g>
</g>
<g>
</g>
<g>
</g>
<g>
</g>
<g>
</g>
<g>
</g>
<g>
</g>
<g>
</g>
</svg>
